<svg width="220" height="128" viewBox="0 0 220 128" fill="none" xmlns="http://www.w3.org/2000/svg">
<path d="M203 102.006V107.953C203 109.577 196.189 110.892 187.79 110.892C179.388 110.892 173 109.577 173 107.953V102.006H203Z" fill="#6B7280"/>
<path d="M202.999 101.78C202.999 100.156 196.189 98.8398 187.789 98.8398C179.389 98.8398 173 100.156 173 101.78C173 103.403 179.389 104.72 187.789 104.72C196.189 104.72 202.999 103.403 202.999 101.78Z" fill="#4B5563"/>
<path d="M190.446 107.053V107.8C185.515 107.978 180.993 107.658 176.125 106.835V106.076C180.991 106.911 185.518 107.235 190.446 107.053Z" fill="#4B5563"/>
<path d="M193.906 106.842V107.592C193.276 107.643 192.643 107.689 192.01 107.725V106.975C192.641 106.94 193.273 106.895 193.906 106.842Z" fill="#4B5563"/>
<path d="M196.899 106.521V107.276C196.274 107.356 195.646 107.427 195.021 107.489V106.735C195.649 106.675 196.272 106.602 196.899 106.521Z" fill="#4B5563"/>
<path d="M199.881 106.076V106.835C199.27 106.939 198.66 107.035 198.047 107.122V106.365C198.66 106.279 199.27 106.183 199.881 106.076Z" fill="#FACC15"/>
<path d="M203 94.5859V100.533C203 102.157 196.189 103.472 187.79 103.472C179.388 103.472 173 102.157 173 100.533V94.5859H203Z" fill="#6B7280"/>
<path d="M202.999 94.3599C202.999 92.7362 196.189 91.4199 187.789 91.4199C179.389 91.4199 173 92.7362 173 94.3599C173 95.9835 179.389 97.2998 187.789 97.2998C196.189 97.2998 202.999 95.9835 202.999 94.3599Z" fill="#4B5563"/>
<path d="M190.446 99.631V100.379C185.515 100.557 180.993 100.236 176.125 99.413V98.6543C180.991 99.4887 185.518 99.8135 190.446 99.631Z" fill="#4B5563"/>
<path d="M193.906 99.4199V100.17C193.276 100.221 192.643 100.268 192.01 100.303V99.5534C192.641 99.5178 193.273 99.4733 193.906 99.4199Z" fill="#4B5563"/>
<path d="M196.899 99.0996V99.8539C196.274 99.9339 195.646 100.005 195.021 100.067V99.3132C195.649 99.2531 196.272 99.1797 196.899 99.0996Z" fill="#4B5563"/>
<path d="M199.881 98.6543V99.413C199.27 99.5176 198.66 99.6132 198.047 99.7V98.9435C198.66 98.8568 199.27 98.7611 199.881 98.6543Z" fill="#FACC15"/>
<path d="M203 87.166V93.1132C203 94.7373 196.189 96.0522 187.79 96.0522C179.388 96.0522 173 94.7373 173 93.1132V87.166H203Z" fill="#6B7280"/>
<path d="M202.999 86.9399C202.999 85.3163 196.189 84 187.789 84C179.389 84 173 85.3163 173 86.9399C173 88.5636 179.389 89.8799 187.789 89.8799C196.189 89.8799 202.999 88.5636 202.999 86.9399Z" fill="#4B5563"/>
<path d="M190.443 92.2111V92.9587C185.513 93.1366 180.991 92.8163 176.123 91.9931V91.2344C180.988 92.0687 185.515 92.3935 190.443 92.2111Z" fill="#4B5563"/>
<path d="M193.899 92V92.7498C193.268 92.801 192.636 92.8477 192.003 92.8833V92.1335C192.633 92.0979 193.266 92.0534 193.899 92Z" fill="#4B5563"/>
<path d="M196.902 91.6797V92.4339C196.276 92.514 195.649 92.5852 195.023 92.6475V91.8933C195.651 91.8332 196.274 91.7598 196.902 91.6797Z" fill="#4B5563"/>
<path d="M199.878 91.2344V91.9931C199.268 92.0976 198.657 92.1933 198.044 92.2801V91.5236C198.657 91.4368 199.268 91.3412 199.878 91.2344Z" fill="#FACC15"/>
<path d="M19.9034 3.0031C20.5473 2.60882 21.242 2.30689 21.9675 2.10591L22.3914 0.0623088L25.8499 0L26.3475 2.02491C27.0778 2.20614 27.782 2.48259 28.4423 2.84734L30.1869 1.70717L32.6441 4.10589L31.563 5.88783C31.9527 6.53083 32.2544 7.22462 32.4598 7.95012L34.5055 8.37379L34.5669 11.8193L32.5335 12.3177C32.3547 13.0504 32.0778 13.7547 31.7104 14.4111L32.853 16.1557L30.4572 18.6479L28.6696 17.57C28.0242 17.9597 27.3299 18.2594 26.6055 18.461L26.1816 20.5046L22.7231 20.5669L22.2255 18.542C21.4955 18.3597 20.7915 18.0833 20.1307 17.7195L18.3861 18.8597L15.9289 16.461L16.9978 14.6666C16.608 14.0236 16.3063 13.3298 16.1009 12.6043L14.0553 12.1806L14 8.73517L16.0272 8.23672C16.2087 7.50493 16.4856 6.80093 16.8504 6.14328L15.7078 4.39873L18.1035 1.90653L19.8912 2.99065L19.9034 3.0031ZM22.1027 7.271C21.6586 7.62026 21.301 8.06979 21.0583 8.58383C20.8157 9.09788 20.6946 9.66226 20.7047 10.2321C20.7149 10.8019 20.8559 11.3615 21.1168 11.8663C21.3776 12.3712 21.7509 12.8073 22.2071 13.1401C22.8664 13.6254 23.6635 13.88 24.478 13.8653C25.2925 13.8507 26.0803 13.5678 26.7222 13.0591C27.1663 12.7099 27.5239 12.2603 27.7666 11.7463C28.0092 11.2322 28.1303 10.6679 28.1202 10.098C28.11 9.52817 27.969 8.96859 27.7081 8.46376C27.4473 7.95893 27.074 7.52279 26.6178 7.19C25.9585 6.70471 25.1614 6.45015 24.3469 6.46477C23.5324 6.47938 22.7446 6.76236 22.1027 7.271Z" fill="#22C55E"/>
<g filter="url(#filter0_d_425_243801)">
<rect x="35" y="10" width="150.296" height="107.581" rx="2.53131" fill="white"/>
<path d="M35 12.5313C35 11.1333 36.1333 10 37.5313 10H182.765C184.163 10 185.296 11.1333 185.296 12.5313V25.0296H35V12.5313Z" fill="#2F80ED"/>
<path d="M54.3299 41.3496H50V42.197H54.3299V41.3496Z" fill="#E5E7EB"/>
<path d="M130.16 41.3496H59.4365V42.197H130.16V41.3496Z" fill="#E5E7EB"/>
<path d="M141.046 41.3496H132.821V42.197H141.046V41.3496Z" fill="#FACC15"/>
<path d="M167.902 61.3711H145.987V62.2184H167.902V61.3711Z" fill="#E5E7EB"/>
<path d="M169.036 41.3496H142.835V42.197H169.036V41.3496Z" fill="#6B7280"/>
<path d="M54.3297 45.3535H50V46.2009H54.3297V45.3535Z" fill="#E5E7EB"/>
<path d="M96.256 45.3535H63.6616V46.2009H96.256V45.3535Z" fill="#6B7280"/>
<path d="M144.03 61.3711H131.701V62.2184H144.03V61.3711Z" fill="#6B7280"/>
<path d="M90.5692 57.3652H59.4365V58.2126H90.5692V57.3652Z" fill="#6B7280"/>
<path d="M85.5022 49.3594H63.6616V50.2068H85.5022V49.3594Z" fill="#FACC15"/>
<path d="M170 53.3613H138.324V54.2087H170V53.3613Z" fill="#6B7280"/>
<path d="M130.162 73.0137H114.042V73.861H130.162V73.0137Z" fill="#6B7280"/>
<path d="M143.861 49.3594H87.9268V50.2068H143.861V49.3594Z" fill="#6B7280"/>
<path d="M128.881 61.3711H59.4365V62.2184H128.881V61.3711Z" fill="#FACC15"/>
<path d="M140.132 45.3535H98.3027V46.2009H140.132V45.3535Z" fill="#E5E7EB"/>
<path d="M161.373 49.3594H147.329V50.2068H161.373V49.3594Z" fill="#E5E7EB"/>
<path d="M54.3297 49.3594H50V50.2068H54.3297V49.3594Z" fill="#E5E7EB"/>
<path d="M54.3299 53.3633H50V54.2106H54.3299V53.3633Z" fill="#6B7280"/>
<path d="M85.0259 53.3613H59.4365V54.2087H85.0259V53.3613Z" fill="#E5E7EB"/>
<path d="M89.251 65.375H63.6616V66.2224H89.251V65.375Z" fill="#E5E7EB"/>
<path d="M168.155 69.3789H132.43V70.2263H168.155V69.3789Z" fill="#FACC15"/>
<path d="M130.194 69.3789H86.8003V70.2263H130.194V69.3789Z" fill="#E5E7EB"/>
<path d="M82.8963 69.3789H63.6616V70.2263H82.8963V69.3789Z" fill="#6B7280"/>
<path d="M141.046 57.3652H92.3325V58.2126H141.046V57.3652Z" fill="#E5E7EB"/>
<path d="M169.036 57.3652H142.835V58.2126H169.036V57.3652Z" fill="#FACC15"/>
<path d="M136.309 53.3613H87.6289V54.2087H136.309V53.3613Z" fill="#FACC15"/>
<path d="M54.3299 57.3652H50V58.2126H54.3299V57.3652Z" fill="#E5E7EB"/>
<path d="M54.3299 61.3711H50V62.2184H54.3299V61.3711Z" fill="#E5E7EB"/>
<path d="M54.3297 65.375H50V66.2224H54.3297V65.375Z" fill="#6B7280"/>
<path d="M54.3297 69.3789H50V70.2263H54.3297V69.3789Z" fill="#E5E7EB"/>
<path d="M54.3299 73.0137H50V73.861H54.3299V73.0137Z" fill="#E5E7EB"/>
<path d="M110.206 73.0137H59.4365V73.861H110.206V73.0137Z" fill="#E5E7EB"/>
<path d="M54.3297 77.0195H50V77.8669H54.3297V77.0195Z" fill="#E5E7EB"/>
<path d="M96.256 77.0195H63.6616V77.8669H96.256V77.0195Z" fill="#6B7280"/>
<path d="M90.5692 89.0332H59.4365V89.8806H90.5692V89.0332Z" fill="#6B7280"/>
<path d="M85.5022 81.0234H63.6616V81.8708H85.5022V81.0234Z" fill="#FACC15"/>
<path d="M129.66 97.0391H113.674V97.8865H129.66V97.0391Z" fill="#FACC15"/>
<path d="M85.5022 105.049H63.6616V105.896H85.5022V105.049Z" fill="#FACC15"/>
<path d="M143.861 81.0234H87.9268V81.8708H143.861V81.0234Z" fill="#6B7280"/>
<path d="M128.881 93.0352H59.4365V93.8825H128.881V93.0352Z" fill="#FACC15"/>
<path d="M140.132 77.0195H98.3027V77.8669H140.132V77.0195Z" fill="#E5E7EB"/>
<path d="M154.338 85.0254H140.32V85.8728H154.338V85.0254Z" fill="#E5E7EB"/>
<path d="M54.3297 81.0234H50V81.8708H54.3297V81.0234Z" fill="#E5E7EB"/>
<path d="M54.3299 85.0254H50V85.8728H54.3299V85.0254Z" fill="#6B7280"/>
<path d="M85.0259 85.0254H59.4365V85.8728H85.0259V85.0254Z" fill="#E5E7EB"/>
<path d="M141.046 89.0332H92.3325V89.8806H141.046V89.0332Z" fill="#E5E7EB"/>
<path d="M136.309 85.0254H87.6289V85.8728H136.309V85.0254Z" fill="#FACC15"/>
<path d="M54.3299 89.0332H50V89.8806H54.3299V89.0332Z" fill="#E5E7EB"/>
<path d="M54.3299 97.0391H50V97.8865H54.3299V97.0391Z" fill="#E5E7EB"/>
<path d="M110.206 97.0391H59.4365V97.8865H110.206V97.0391Z" fill="#E5E7EB"/>
<path d="M54.3297 101.045H50V101.892H54.3297V101.045Z" fill="#E5E7EB"/>
<path d="M96.256 101.045H63.6616V101.892H96.256V101.045Z" fill="#6B7280"/>
<path d="M143.861 105.049H87.9268V105.896H143.861V105.049Z" fill="#6B7280"/>
<path d="M54.3297 105.049H50V105.896H54.3297V105.049Z" fill="#E5E7EB"/>
<path d="M52.1067 33.7347C52.2237 33.8561 52.2237 34.0379 52.1067 34.1547C52.0461 34.2106 51.9765 34.2386 51.9016 34.2386C51.8223 34.2386 51.7474 34.2106 51.687 34.1547L50.3758 32.8247C50.3615 32.8202 50.3569 32.8107 50.3523 32.7968C50.3478 32.7919 50.338 32.7873 50.338 32.7873C50.329 32.7733 50.329 32.7639 50.3243 32.7499C50.3146 32.7453 50.31 32.7359 50.31 32.7313C50.3054 32.7219 50.3054 32.708 50.301 32.7033C50.301 32.6894 50.2911 32.6848 50.2911 32.6799V32.6474C50.2911 32.6379 50.2866 32.6335 50.2866 32.6195C50.2866 32.6145 50.2911 32.6005 50.2911 32.596V32.5635C50.2911 32.554 50.301 32.5495 50.301 32.5446C50.3054 32.5306 50.3054 32.5214 50.31 32.5071C50.31 32.5027 50.3146 32.5027 50.3146 32.4981C50.3243 32.484 50.329 32.4652 50.338 32.4561C50.338 32.4561 50.338 32.4467 50.3478 32.4467C50.3523 32.4372 50.3615 32.4232 50.3758 32.4141L51.687 31.0841C51.8034 30.972 51.9947 30.972 52.1067 31.0841C52.2237 31.2006 52.2237 31.3873 52.1067 31.5041L51.0011 32.6195L52.1067 33.7347Z" fill="#FACC15"/>
<path d="M53.2952 33.8826L54.4385 31.1618C54.4944 31.0314 54.6434 30.9706 54.7788 31.0268C54.905 31.0779 54.9656 31.2322 54.9096 31.358L53.7664 34.0834C53.724 34.1814 53.6264 34.2373 53.5281 34.2373C53.5001 34.2373 53.4631 34.2328 53.4351 34.2188C53.2998 34.1673 53.2392 34.0134 53.2952 33.8826Z" fill="#FACC15"/>
<path d="M57.1679 32.7873C57.1679 32.7873 57.1679 32.7919 57.1634 32.7919C57.1537 32.8013 57.1445 32.8153 57.1302 32.8247L55.819 34.1547C55.7631 34.2106 55.6836 34.2386 55.6089 34.2386C55.5295 34.2386 55.4598 34.2106 55.3994 34.1547C55.2822 34.0379 55.2822 33.8561 55.3994 33.7347L56.5049 32.6195L55.3994 31.5041C55.2822 31.3873 55.2822 31.2006 55.3994 31.0841C55.5112 30.972 55.7025 30.972 55.819 31.0841L57.1302 32.4141C57.1445 32.4232 57.1537 32.4372 57.1634 32.4467C57.1679 32.4467 57.1679 32.4561 57.1679 32.4561C57.177 32.4746 57.1861 32.484 57.1914 32.4981C57.1914 32.5027 57.1959 32.5027 57.1959 32.5071C57.2004 32.5214 57.2004 32.5306 57.2096 32.5495C57.2096 32.554 57.2141 32.554 57.2141 32.5635V32.596C57.2141 32.6005 57.2193 32.6145 57.2193 32.6195C57.2193 32.624 57.2141 32.6379 57.2141 32.6425V32.6799C57.2141 32.6848 57.2096 32.6848 57.2096 32.6894C57.2004 32.708 57.2004 32.7219 57.1959 32.7313C57.1959 32.7359 57.1914 32.7359 57.1914 32.7453C57.1861 32.7548 57.177 32.7688 57.1679 32.7873Z" fill="#FACC15"/>
</g>
<g filter="url(#filter1_d_425_243801)">
<rect x="171" y="13" width="32" height="32" rx="4" fill="#FEF9C3" shape-rendering="crispEdges"/>
<path d="M193.969 33.1975C193.41 32.6384 192.758 32.182 192.041 31.8493C193.052 31.0301 193.697 29.7801 193.697 28.3783C193.697 25.9051 191.634 23.8761 189.161 23.914C186.726 23.952 184.764 25.9363 184.764 28.3783C184.764 29.7801 185.411 31.0301 186.42 31.8493C185.703 32.1817 185.05 32.6381 184.491 33.1975C183.273 34.4185 182.581 36.0301 182.536 37.7488C182.536 37.7727 182.54 37.7964 182.548 37.8186C182.557 37.8407 182.57 37.861 182.587 37.878C182.603 37.8951 182.623 37.9086 182.645 37.9179C182.667 37.9271 182.691 37.9319 182.715 37.9319H183.965C184.061 37.9319 184.141 37.856 184.143 37.76C184.186 36.4654 184.71 35.2533 185.632 34.3337C186.104 33.8594 186.665 33.4834 187.283 33.2275C187.901 32.9716 188.564 32.8407 189.233 32.8426C190.592 32.8426 191.871 33.3716 192.833 34.3337C193.753 35.2533 194.277 36.4654 194.322 37.76C194.324 37.856 194.404 37.9319 194.5 37.9319H195.75C195.774 37.9319 195.798 37.9271 195.82 37.9179C195.842 37.9086 195.862 37.8951 195.878 37.878C195.895 37.861 195.908 37.8407 195.917 37.8186C195.925 37.7964 195.93 37.7727 195.929 37.7488C195.884 36.0301 195.192 34.4185 193.969 33.1975ZM189.233 31.2355C188.469 31.2355 187.75 30.9386 187.212 30.3984C186.942 30.1306 186.729 29.8111 186.585 29.459C186.442 29.107 186.37 28.7296 186.375 28.3493C186.382 27.6172 186.675 26.9096 187.186 26.385C187.721 25.8359 188.438 25.5301 189.204 25.5212C189.96 25.5145 190.695 25.8091 191.235 26.3381C191.788 26.8805 192.092 27.606 192.092 28.3783C192.092 29.1417 191.795 29.8582 191.255 30.3984C190.99 30.6647 190.675 30.8758 190.328 31.0195C189.98 31.1631 189.608 31.2366 189.233 31.2355ZM183.641 28.9676C183.621 28.7734 183.61 28.577 183.61 28.3783C183.61 28.0234 183.643 27.6774 183.706 27.3404C183.721 27.26 183.679 27.1774 183.605 27.1439C183.302 27.0078 183.023 26.8203 182.782 26.5837C182.498 26.3082 182.274 25.9766 182.125 25.61C181.977 25.2433 181.906 24.8497 181.918 24.4542C181.938 23.7377 182.226 23.0569 182.728 22.5435C183.279 21.9788 184.02 21.6707 184.808 21.6797C185.52 21.6863 186.208 21.9609 186.728 22.4475C186.904 22.6127 187.056 22.7957 187.183 22.9922C187.228 23.0613 187.315 23.0904 187.391 23.0636C187.784 22.9274 188.199 22.8314 188.625 22.7868C188.75 22.7734 188.822 22.6395 188.766 22.5279C188.041 21.0926 186.558 20.1015 184.844 20.0747C182.369 20.0368 180.306 22.0658 180.306 24.5368C180.306 25.9386 180.951 27.1886 181.962 28.0078C181.253 28.3359 180.599 28.789 180.032 29.356C178.808 30.577 178.116 32.1886 178.072 33.9096C178.071 33.9334 178.075 33.9571 178.084 33.9793C178.093 34.0015 178.106 34.0217 178.123 34.0387C178.139 34.0558 178.159 34.0693 178.181 34.0786C178.203 34.0878 178.227 34.0926 178.25 34.0926H179.503C179.599 34.0926 179.679 34.0167 179.681 33.9207C179.724 32.6261 180.248 31.414 181.17 30.4944C181.826 29.8381 182.63 29.3828 183.507 29.1618C183.594 29.1395 183.652 29.0569 183.641 28.9676V28.9676Z" fill="#EAB308"/>
</g>
<defs>
<filter id="filter0_d_425_243801" x="28.6717" y="5.2538" width="162.953" height="120.237" filterUnits="userSpaceOnUse" color-interpolation-filters="sRGB">
<feFlood flood-opacity="0" result="BackgroundImageFix"/>
<feColorMatrix in="SourceAlpha" type="matrix" values="0 0 0 0 0 0 0 0 0 0 0 0 0 0 0 0 0 0 127 0" result="hardAlpha"/>
<feOffset dy="1.58207"/>
<feGaussianBlur stdDeviation="3.16413"/>
<feComposite in2="hardAlpha" operator="out"/>
<feColorMatrix type="matrix" values="0 0 0 0 0 0 0 0 0 0 0 0 0 0 0 0 0 0 0.15 0"/>
<feBlend mode="normal" in2="BackgroundImageFix" result="effect1_dropShadow_425_243801"/>
<feBlend mode="normal" in="SourceGraphic" in2="effect1_dropShadow_425_243801" result="shape"/>
</filter>
<filter id="filter1_d_425_243801" x="167" y="13" width="40" height="40" filterUnits="userSpaceOnUse" color-interpolation-filters="sRGB">
<feFlood flood-opacity="0" result="BackgroundImageFix"/>
<feColorMatrix in="SourceAlpha" type="matrix" values="0 0 0 0 0 0 0 0 0 0 0 0 0 0 0 0 0 0 127 0" result="hardAlpha"/>
<feOffset dy="4"/>
<feGaussianBlur stdDeviation="2"/>
<feComposite in2="hardAlpha" operator="out"/>
<feColorMatrix type="matrix" values="0 0 0 0 0 0 0 0 0 0 0 0 0 0 0 0 0 0 0.25 0"/>
<feBlend mode="normal" in2="BackgroundImageFix" result="effect1_dropShadow_425_243801"/>
<feBlend mode="normal" in="SourceGraphic" in2="effect1_dropShadow_425_243801" result="shape"/>
</filter>
</defs>
</svg>
